<?xml version="1.0" standalone="no"?>
<!DOCTYPE svg PUBLIC "-//W3C//DTD SVG 20010904//EN"
 "http://www.w3.org/TR/2001/REC-SVG-20010904/DTD/svg10.dtd">
<svg version="1.0" xmlns="http://www.w3.org/2000/svg"
 width="1286.000000pt" height="1031.000000pt" viewBox="0 0 1286.000000 1031.000000"
 preserveAspectRatio="xMidYMid meet">

<g transform="translate(0.000000,1031.000000) scale(0.100000,-0.100000)"
fill="#000000" stroke="none">
<path d="M5363 8288 c-6 -7 -19 -40 -31 -73 -11 -33 -50 -141 -87 -240 -37
-99 -80 -216 -95 -260 -16 -44 -70 -192 -120 -330 -91 -246 -124 -335 -253
-690 -36 -99 -96 -261 -132 -360 -37 -99 -80 -216 -95 -260 -16 -44 -92 -253
-170 -465 -78 -212 -195 -531 -260 -710 -65 -179 -141 -386 -168 -460 -28 -74
-112 -304 -187 -510 -75 -206 -207 -566 -292 -800 -86 -234 -171 -467 -189
-517 l-34 -93 949 0 c896 0 950 1 955 18 25 87 133 457 156 532 16 52 52 174
80 270 28 96 69 234 90 305 21 72 57 191 79 265 65 219 130 439 158 530 14 47
42 144 63 215 37 127 114 385 170 575 16 52 51 172 79 265 28 94 69 233 92
310 23 77 56 190 74 250 42 143 225 761 277 935 22 74 55 185 73 245 18 61 56
189 85 285 29 96 65 218 80 270 22 77 77 262 140 472 5 14 6 29 2 32 -3 3
-337 6 -742 6 -578 0 -740 -3 -747 -12z"/>
<path d="M7687 7763 c-3 -10 -25 -88 -50 -173 -24 -85 -56 -193 -70 -240 -14
-47 -44 -146 -66 -220 -22 -74 -60 -202 -85 -285 -24 -82 -77 -260 -116 -395
-40 -135 -90 -306 -112 -380 -22 -74 -53 -178 -68 -230 -15 -52 -56 -189 -90
-305 -34 -115 -77 -262 -95 -325 l-33 -116 28 -99 c15 -55 44 -156 64 -223 20
-68 36 -130 36 -138 0 -11 -26 -14 -137 -14 l-138 0 -32 -108 c-28 -93 -89
-298 -245 -822 -22 -74 -53 -180 -70 -235 -16 -55 -31 -104 -31 -110 -1 -7
181 -12 523 -15 l524 -5 39 -130 c21 -71 56 -188 77 -260 22 -71 59 -194 82
-272 l42 -143 978 0 c700 0 978 3 978 11 0 10 -63 186 -335 929 -70 190 -163
444 -207 565 -44 121 -101 279 -128 350 -43 115 -118 323 -270 740 -89 244
-369 1009 -515 1410 -81 220 -157 429 -170 465 -13 36 -71 196 -130 355 -59
160 -118 323 -132 363 -25 73 -36 86 -46 55z"/>
</g>
</svg>
